<mxfile host="app.diagrams.net" modified="2024-02-16T14:23:04.813Z" agent="Mozilla/5.0 (Windows NT 10.0; Win64; x64) AppleWebKit/537.36 (KHTML, like Gecko) Chrome/120.0.0.0 YaBrowser/24.1.0.0 Safari/537.36" etag="qapcrftZtqyCBobXlKSc" version="23.1.5" type="device">
  <diagram name="Страница — 1" id="_k7X2LUXhLaStbc6grG4">
    <mxGraphModel dx="3114" dy="2527" grid="1" gridSize="10" guides="1" tooltips="1" connect="1" arrows="1" fold="1" page="1" pageScale="1" pageWidth="827" pageHeight="1169" math="0" shadow="0">
      <root>
        <mxCell id="0" />
        <mxCell id="1" parent="0" />
        <mxCell id="4R6h3u2ElAtVXQDS5pyK-1" value="&lt;span style=&quot;font-size: 14px;&quot;&gt;Хранение в базе данных&lt;/span&gt;" style="rounded=0;whiteSpace=wrap;html=1;" parent="1" vertex="1">
          <mxGeometry x="-370" y="70" width="240" height="150" as="geometry" />
        </mxCell>
        <mxCell id="4ZAXN-EycAdYn7AnqBn4-3" value="" style="endArrow=classic;html=1;rounded=0;entryX=0;entryY=0.127;entryDx=0;entryDy=0;entryPerimeter=0;exitX=0;exitY=1;exitDx=0;exitDy=0;" parent="1" source="bqVK2Qs7yenPgVk84HZM-2" edge="1">
          <mxGeometry width="50" height="50" relative="1" as="geometry">
            <mxPoint x="-590" y="90" as="sourcePoint" />
            <mxPoint x="-370" y="90.31999999999994" as="targetPoint" />
            <Array as="points">
              <mxPoint x="-410" y="90" />
            </Array>
          </mxGeometry>
        </mxCell>
        <mxCell id="4ZAXN-EycAdYn7AnqBn4-4" value="" style="endArrow=classic;html=1;rounded=0;" parent="1" edge="1">
          <mxGeometry width="50" height="50" relative="1" as="geometry">
            <mxPoint x="400" y="580" as="sourcePoint" />
            <mxPoint x="399.5" y="480" as="targetPoint" />
          </mxGeometry>
        </mxCell>
        <mxCell id="4ZAXN-EycAdYn7AnqBn4-5" value="&lt;font style=&quot;font-size: 14px;&quot;&gt;&amp;nbsp; &amp;nbsp; Учитель математики&lt;/font&gt;" style="text;html=1;align=center;verticalAlign=middle;resizable=0;points=[];autosize=1;strokeColor=none;fillColor=none;" parent="1" vertex="1">
          <mxGeometry x="385" y="520" width="170" height="30" as="geometry" />
        </mxCell>
        <mxCell id="4ZAXN-EycAdYn7AnqBn4-6" value="" style="endArrow=classic;html=1;rounded=0;" parent="1" edge="1">
          <mxGeometry width="50" height="50" relative="1" as="geometry">
            <mxPoint x="-600" y="210" as="sourcePoint" />
            <mxPoint x="-370" y="210" as="targetPoint" />
            <Array as="points">
              <mxPoint x="-490" y="210" />
            </Array>
          </mxGeometry>
        </mxCell>
        <mxCell id="P0-pLIS1LEKjCsPrtMa9-2" value="" style="endArrow=classic;html=1;rounded=0;entryX=0.44;entryY=-0.005;entryDx=0;entryDy=0;entryPerimeter=0;" parent="1" edge="1">
          <mxGeometry width="50" height="50" relative="1" as="geometry">
            <mxPoint x="-250.66999999999996" y="-30" as="sourcePoint" />
            <mxPoint x="-250.26999999999998" y="70.00000000000006" as="targetPoint" />
          </mxGeometry>
        </mxCell>
        <mxCell id="P0-pLIS1LEKjCsPrtMa9-3" value="&lt;span style=&quot;color: rgb(0, 0, 0); font-family: Arial, sans-serif; font-style: normal; font-variant-ligatures: normal; font-variant-caps: normal; font-weight: 400; letter-spacing: normal; orphans: 2; text-align: justify; text-indent: 0px; text-transform: none; widows: 2; word-spacing: 0px; -webkit-text-stroke-width: 0px; text-decoration-thickness: initial; text-decoration-style: initial; text-decoration-color: initial; float: none; display: inline !important;&quot;&gt;&lt;font style=&quot;font-size: 14px;&quot;&gt;ГОСТ 2.319-81&lt;/font&gt;&lt;/span&gt;" style="text;whiteSpace=wrap;html=1;" parent="1" vertex="1">
          <mxGeometry x="-240" width="140" height="40" as="geometry" />
        </mxCell>
        <mxCell id="bqVK2Qs7yenPgVk84HZM-1" value="&lt;font style=&quot;font-size: 14px;&quot;&gt;Математические функции, &lt;br&gt;координаты центра, радиус, &lt;br&gt;полуоси для построения графика&lt;/font&gt;" style="text;html=1;align=left;verticalAlign=middle;resizable=0;points=[];autosize=1;strokeColor=none;fillColor=none;" parent="1" vertex="1">
          <mxGeometry x="-600" y="150" width="240" height="60" as="geometry" />
        </mxCell>
        <mxCell id="bqVK2Qs7yenPgVk84HZM-2" value="Текст задачи по математике" style="text;whiteSpace=wrap;fontSize=14;" parent="1" vertex="1">
          <mxGeometry x="-600" y="50" width="170" height="40" as="geometry" />
        </mxCell>
        <mxCell id="bqVK2Qs7yenPgVk84HZM-3" value="" style="endArrow=classic;html=1;rounded=0;" parent="1" edge="1">
          <mxGeometry width="50" height="50" relative="1" as="geometry">
            <mxPoint x="-600" y="140.5" as="sourcePoint" />
            <mxPoint x="-370" y="140" as="targetPoint" />
            <Array as="points" />
          </mxGeometry>
        </mxCell>
        <mxCell id="bqVK2Qs7yenPgVk84HZM-4" value="Текст ответа на задачу по математике" style="text;whiteSpace=wrap;fontSize=14;" parent="1" vertex="1">
          <mxGeometry x="-600" y="100" width="170" height="40" as="geometry" />
        </mxCell>
        <mxCell id="bqVK2Qs7yenPgVk84HZM-6" value="" style="endArrow=classic;html=1;rounded=0;entryX=0;entryY=0.127;entryDx=0;entryDy=0;entryPerimeter=0;exitX=0;exitY=1;exitDx=0;exitDy=0;" parent="1" edge="1">
          <mxGeometry width="50" height="50" relative="1" as="geometry">
            <mxPoint x="560" y="340" as="sourcePoint" />
            <mxPoint x="790" y="340" as="targetPoint" />
            <Array as="points">
              <mxPoint x="750" y="340" />
            </Array>
          </mxGeometry>
        </mxCell>
        <mxCell id="bqVK2Qs7yenPgVk84HZM-7" value="" style="endArrow=classic;html=1;rounded=0;entryX=0;entryY=0.127;entryDx=0;entryDy=0;entryPerimeter=0;exitX=0;exitY=1;exitDx=0;exitDy=0;" parent="1" edge="1">
          <mxGeometry width="50" height="50" relative="1" as="geometry">
            <mxPoint x="560" y="390" as="sourcePoint" />
            <mxPoint x="790" y="390" as="targetPoint" />
            <Array as="points">
              <mxPoint x="750" y="390" />
            </Array>
          </mxGeometry>
        </mxCell>
        <mxCell id="bqVK2Qs7yenPgVk84HZM-8" value="" style="endArrow=classic;html=1;rounded=0;entryX=0;entryY=0.127;entryDx=0;entryDy=0;entryPerimeter=0;exitX=0;exitY=1;exitDx=0;exitDy=0;" parent="1" edge="1">
          <mxGeometry width="50" height="50" relative="1" as="geometry">
            <mxPoint x="560" y="460" as="sourcePoint" />
            <mxPoint x="790" y="460" as="targetPoint" />
            <Array as="points">
              <mxPoint x="750" y="460" />
            </Array>
          </mxGeometry>
        </mxCell>
        <mxCell id="bqVK2Qs7yenPgVk84HZM-9" value="Отображение текста задачи" style="text;whiteSpace=wrap;fontSize=14;" parent="1" vertex="1">
          <mxGeometry x="600" y="300" width="170" height="40" as="geometry" />
        </mxCell>
        <mxCell id="bqVK2Qs7yenPgVk84HZM-10" value="Отображение решения задачи" style="text;whiteSpace=wrap;fontSize=14;" parent="1" vertex="1">
          <mxGeometry x="600" y="350" width="170" height="40" as="geometry" />
        </mxCell>
        <mxCell id="bqVK2Qs7yenPgVk84HZM-11" value="Отображение&#xa;графика" style="text;whiteSpace=wrap;fontSize=14;" parent="1" vertex="1">
          <mxGeometry x="600" y="410" width="170" height="40" as="geometry" />
        </mxCell>
        <mxCell id="nOvpmiXL9CjfBhu-SFzO-2" value="" style="endArrow=classic;html=1;rounded=0;exitX=1;exitY=0.5;exitDx=0;exitDy=0;" edge="1" parent="1" source="4R6h3u2ElAtVXQDS5pyK-1">
          <mxGeometry width="50" height="50" relative="1" as="geometry">
            <mxPoint x="80" y="180" as="sourcePoint" />
            <mxPoint x="-50" y="145" as="targetPoint" />
          </mxGeometry>
        </mxCell>
      </root>
    </mxGraphModel>
  </diagram>
</mxfile>
